<?xml version="1.0" encoding="UTF-8" standalone="no"?>
<!-- Generator: Adobe Illustrator 24.3.0, SVG Export Plug-In . SVG Version: 6.00 Build 0)  -->

<svg
   xmlns:dc="http://purl.org/dc/elements/1.1/"
   xmlns:cc="http://creativecommons.org/ns#"
   xmlns:rdf="http://www.w3.org/1999/02/22-rdf-syntax-ns#"
   xmlns:svg="http://www.w3.org/2000/svg"
   xmlns="http://www.w3.org/2000/svg"
   xmlns:sodipodi="http://sodipodi.sourceforge.net/DTD/sodipodi-0.dtd"
   xmlns:inkscape="http://www.inkscape.org/namespaces/inkscape"
   version="1.1"
   id="Capa_1"
   x="0px"
   y="0px"
   viewBox="0 0 32 32"
   xml:space="preserve"
   sodipodi:docname="policy.svg"
   inkscape:version="0.92.5 (2060ec1f9f, 2020-04-08)"
   width="32"
   height="32"><metadata
   id="metadata1104"><rdf:RDF><cc:Work
       rdf:about=""><dc:format>image/svg+xml</dc:format><dc:type
         rdf:resource="http://purl.org/dc/dcmitype/StillImage" /><dc:title></dc:title></cc:Work></rdf:RDF></metadata><defs
   id="defs1102" /><sodipodi:namedview
   pagecolor="#ffffff"
   bordercolor="#666666"
   borderopacity="1"
   objecttolerance="10"
   gridtolerance="10"
   guidetolerance="10"
   inkscape:pageopacity="0"
   inkscape:pageshadow="2"
   inkscape:window-width="1920"
   inkscape:window-height="1025"
   id="namedview1100"
   showgrid="true"
   inkscape:snap-global="false"
   showguides="true"
   inkscape:zoom="24.126483"
   inkscape:cx="16.538191"
   inkscape:cy="14.111353"
   inkscape:window-x="0"
   inkscape:window-y="29"
   inkscape:window-maximized="1"
   inkscape:current-layer="g1994"
   inkscape:guide-bbox="true"><sodipodi:guide
     position="-343.25909,264.47831"
     orientation="1,0"
     id="guide917"
     inkscape:locked="false" /><sodipodi:guide
     position="224.61899,271.98124"
     orientation="1,0"
     id="guide919"
     inkscape:locked="false" /><sodipodi:guide
     position="79.08322,60.514414"
     orientation="0,1"
     id="guide921"
     inkscape:locked="false" /><inkscape:grid
     type="xygrid"
     id="grid3024" /></sodipodi:namedview>
<style
   type="text/css"
   id="style815">
	.st0{fill:#5F7993;}
	.st1{fill:#17B5C8;}
	.st2{fill:#11828F;}
	.st3{fill:#405162;}
	.st4{fill:#A6D100;}
	.st5{fill:#89AB00;}
	.st6{fill:#FFFFFF;}
	.st7{fill:none;stroke:#17B5C8;stroke-width:2;stroke-miterlimit:10;}
</style>

<g
   id="g1994"
   transform="translate(-6.3001308,-173.63696)"><g
     id="g3020"
     transform="matrix(0.16807548,0,0,0.16807548,-2.4194218,172.15782)"><g
       id="g2962"><path
         sodipodi:nodetypes="ccccscczcsc"
         inkscape:connector-curvature="0"
         id="path915-3"
         d="m 94.398919,113.32734 c -3.3642,20.71022 -4.388397,33.28153 -4.388397,33.28153 L 75.00466,164.42833 c 28.52444,6.48831 52.26666,9.93738 75.02931,25.79133 11.62932,-9.08302 23.8417,-14.66764 36.36061,-18.41312 12.51891,-3.74547 25.34434,-5.65179 38.19976,-7.37821 L 210.2232,147.0778 c 0,0 -6.25009,-73.928085 -19.39205,-93.786625 -13.14196,-19.858544 -39.85932,-27.667058 -39.85932,-27.667058 0,0 -27.38253,8.120281 -40.79718,28.135988 -6.70733,10.00786 -11.582566,31.89371 -14.946766,51.277585"
         style="fill:#5f7993;stroke:none;stroke-width:1px;stroke-linecap:butt;stroke-linejoin:miter;stroke-opacity:1" /><path
         sodipodi:nodetypes="cssssssccccc"
         inkscape:connector-curvature="0"
         id="path923"
         d="m 189.26448,143.01845 c -5.0203,0.80834 -4.75156,0.77847 -9.74492,1.31723 -4.99337,0.53877 -9.97333,0.94276 -14.94002,1.21201 -4.96669,0.26926 -9.92011,0.40378 -14.86038,0.4036 -4.94028,-1.9e-4 -9.86741,-0.13507 -14.78153,-0.40462 -4.91413,-0.26955 -9.81523,-0.67377 -14.70346,-1.21263 -4.88823,-0.53885 -9.76357,-1.21234 -14.62616,-2.02043 -4.86259,-0.80808 -9.712425,-1.75077 -14.549637,-2.82802 l -1.023203,7.05603 c 39.87026,12.48643 79.93956,12.74082 120.21268,0.46893 l -0.60627,-7.52496 c -5.04749,1.07798 -2.78642,1.02636 -7.80671,1.8347"
         style="fill:#a6d100;stroke:#000000;stroke-width:1px;stroke-linecap:butt;stroke-linejoin:miter;stroke-opacity:1" /><path
         sodipodi:nodetypes="ccccccsccccssccccccccccccccccccccccccc"
         inkscape:connector-curvature="0"
         id="path929"
         d="m 171.02716,105.75741 2.97479,-1.26544 -10.57226,-5.220672 3.82422,-11.154297 -8.01758,1.792969 3.30078,-4.927735 c 1.65523,-2.802531 2.40925,-5.067899 0.48242,-8.574218 -1.92683,-3.506322 -6.08816,-3.374077 -9.96289,-3.435547 l 0.14224,-5.89415 -5.48496,-0.149719 0.25483,6.039963 c -1.92325,0.132135 -4.2331,0.154595 -6.22532,0.603006 -1.99222,0.448411 -3.66683,1.322773 -4.3196,3.158712 -1.30555,3.671877 -0.83315,6.430866 2.55273,10.558594 l 2.55274,2.933594 -8.00196,-2.166016 3.78125,11.167969 -10.58984,5.183567 10.57227,5.22262 -3.82422,11.15231 11.16797,-3.78125 5.18359,10.58985 5.2207,-10.57227 11.1543,3.82422 -3.7832,-11.16793 1.15107,-0.60227 M 143.26172,77.089657 h 5.13867 v 9.78125 l -3.97851,0.166016 -3.48243,-5.140625 c -0.67335,-2.567365 0.34774,-4.004528 2.32227,-4.806641 z m 8.93555,0.0059 h 5.14062 c 1.97453,0.802113 2.99366,2.239275 2.32031,4.80664 l -3.48047,5.140625 -3.98046,-0.166015 z"
         style="opacity:1;fill:#ffffff;fill-opacity:1;fill-rule:nonzero;stroke:#000000;stroke-width:1.16404748;stroke-linecap:round;stroke-linejoin:round;stroke-miterlimit:4;stroke-dasharray:none;stroke-dashoffset:0;stroke-opacity:1" /><path
         sodipodi:nodetypes="ccsccccc"
         inkscape:connector-curvature="0"
         id="path953"
         d="m 134.11489,33.645955 7.85463,1.0551 c -21.05269,23.794377 -26.09891,36.789764 -31.44854,51.117634 -2.92435,7.832248 -10.27513,36.282681 -11.341614,54.744031 l -7.85463,-1.4068 c 3.532651,-29.15198 7.425563,-57.774167 16.178194,-79.249707 2.88503,-5.317939 5.70077,-11.139454 11.01993,-15.240328 4.60893,-4.859344 9.73349,-8.347398 15.59203,-11.01993 z"
         style="fill:#405162;stroke:none;stroke-width:1px;stroke-linecap:butt;stroke-linejoin:miter;stroke-opacity:1" /><path
         sodipodi:nodetypes="cccc"
         inkscape:connector-curvature="0"
         id="path955"
         d="m 90.025553,147.02916 8.952817,2.73558 -23.211008,14.50689 z"
         style="fill:#405162;stroke:none;stroke-width:1px;stroke-linecap:butt;stroke-linejoin:miter;stroke-opacity:1" /><path
         sodipodi:nodetypes="ccccc"
         inkscape:connector-curvature="0"
         id="path957"
         d="m 91.517689,140.14875 -0.911861,6.38304 8.538335,2.07241 v -6.88041 z"
         style="fill:#89ab00;stroke:none;stroke-width:1px;stroke-linecap:butt;stroke-linejoin:miter;stroke-opacity:1" /><g
         id="g3007"><path
           style="fill:none;stroke:#000000;stroke-width:2;stroke-linecap:butt;stroke-linejoin:miter;stroke-miterlimit:4;stroke-dasharray:none;stroke-opacity:1"
           d="m 94.423567,113.26009 c -3.3642,20.71022 -4.388397,33.28153 -4.388397,33.28153 l -15.005862,17.81946 c 28.524442,6.48831 52.266662,9.93738 75.029312,25.79133 11.62932,-9.08302 21.85219,-14.50185 33.37634,-17.58416 m 14.42398,-3.81323 c 9.86622,-2.58492 13.90463,-2.66752 26.76005,-4.39394 l -14.37114,-17.35053 c 0,0 -6.25009,-73.92809 -19.39205,-93.786634 -13.14196,-19.858544 -39.85932,-27.667058 -39.85932,-27.667058 0,0 -27.38253,8.120281 -40.79718,28.135991 -6.70733,10.007856 -8.76409,22.609303 -12.459874,37.682572"
           id="path915"
           inkscape:connector-curvature="0"
           sodipodi:nodetypes="cccccccczcsc" /></g><path
         sodipodi:nodetypes="cccccc"
         inkscape:connector-curvature="0"
         id="path925"
         d="m 133.4633,32.71495 c 10.57249,2.51296 21.68227,2.625611 33.49017,-0.165794 -2.71268,-3.5685 -6.05373,-6.744272 -12.26868,-8.123853 l -4.62617,-9.450196 -4.98982,9.615989 c -6.05456,1.18645 -9.37014,4.815626 -11.6055,8.123854 z"
         style="fill:#a6d100;stroke:#000000;stroke-width:2;stroke-linecap:butt;stroke-linejoin:miter;stroke-miterlimit:4;stroke-dasharray:none;stroke-opacity:1" /><path
         sodipodi:nodetypes="cccccc"
         inkscape:connector-curvature="0"
         id="path951"
         d="m 149.94139,17.467761 1.99296,3.399765 -9.43728,12.374973 -7.45112,-1.055099 c 2.77221,-3.804241 5.10921,-5.640408 10.66763,-6.658438 z"
         style="fill:#89ab00;stroke:none;stroke-width:1px;stroke-linecap:butt;stroke-linejoin:miter;stroke-opacity:1" /></g></g></g></svg>