<?xml version="1.0" encoding="UTF-8" standalone="no"?>
<!-- Generator: Adobe Illustrator 24.3.0, SVG Export Plug-In . SVG Version: 6.00 Build 0)  -->

<svg
   xmlns:dc="http://purl.org/dc/elements/1.1/"
   xmlns:cc="http://creativecommons.org/ns#"
   xmlns:rdf="http://www.w3.org/1999/02/22-rdf-syntax-ns#"
   xmlns:svg="http://www.w3.org/2000/svg"
   xmlns="http://www.w3.org/2000/svg"
   xmlns:sodipodi="http://sodipodi.sourceforge.net/DTD/sodipodi-0.dtd"
   xmlns:inkscape="http://www.inkscape.org/namespaces/inkscape"
   version="1.1"
   id="Capa_1"
   x="0px"
   y="0px"
   viewBox="0 0 32 32"
   xml:space="preserve"
   sodipodi:docname="policy-link.svg"
   inkscape:version="0.92.5 (2060ec1f9f, 2020-04-08)"
   width="32"
   height="32"><metadata
   id="metadata1104"><rdf:RDF><cc:Work
       rdf:about=""><dc:format>image/svg+xml</dc:format><dc:type
         rdf:resource="http://purl.org/dc/dcmitype/StillImage" /><dc:title></dc:title></cc:Work></rdf:RDF></metadata><defs
   id="defs1102" /><sodipodi:namedview
   pagecolor="#ffffff"
   bordercolor="#666666"
   borderopacity="1"
   objecttolerance="10"
   gridtolerance="10"
   guidetolerance="10"
   inkscape:pageopacity="0"
   inkscape:pageshadow="2"
   inkscape:window-width="1920"
   inkscape:window-height="1025"
   id="namedview1100"
   showgrid="true"
   inkscape:snap-global="false"
   showguides="true"
   inkscape:zoom="24.126483"
   inkscape:cx="16.538191"
   inkscape:cy="14.111353"
   inkscape:window-x="0"
   inkscape:window-y="29"
   inkscape:window-maximized="1"
   inkscape:current-layer="g1994"
   inkscape:guide-bbox="true"><sodipodi:guide
     position="-343.25909,264.47831"
     orientation="1,0"
     id="guide917"
     inkscape:locked="false" /><sodipodi:guide
     position="224.61899,271.98124"
     orientation="1,0"
     id="guide919"
     inkscape:locked="false" /><sodipodi:guide
     position="79.08322,60.514414"
     orientation="0,1"
     id="guide921"
     inkscape:locked="false" /><inkscape:grid
     type="xygrid"
     id="grid3024" /></sodipodi:namedview>
<style
   type="text/css"
   id="style815">
	.st0{fill:#5F7993;}
	.st1{fill:#17B5C8;}
	.st2{fill:#11828F;}
	.st3{fill:#405162;}
	.st4{fill:#A6D100;}
	.st5{fill:#89AB00;}
	.st6{fill:#FFFFFF;}
	.st7{fill:none;stroke:#17B5C8;stroke-width:2;stroke-miterlimit:10;}
</style>

<g
   id="g1994"
   transform="translate(-6.3001308,-173.63696)"><path
     sodipodi:nodetypes="ccccscczcsc"
     inkscape:connector-curvature="0"
     id="path915-3"
     d="m 13.985549,191.49551 c -0.565439,3.48088 -0.737582,5.59381 -0.737582,5.59381 l -2.522117,2.99501 c 4.794259,1.09053 8.784744,1.67023 12.610587,4.33489 1.954604,-1.52663 4.007205,-2.46527 6.111327,-3.09479 2.104122,-0.62952 4.259762,-0.94993 6.420443,-1.2401 l -2.415436,-2.9162 c 0,0 -1.050487,-12.4255 -3.259328,-15.76323 -2.208842,-3.33773 -6.699375,-4.65015 -6.699375,-4.65015 0,0 -4.602332,1.36482 -6.857005,4.72897 -1.127338,1.68207 -1.946746,5.36055 -2.512185,8.6185"
     style="fill:#5f7993;stroke:none;stroke-width:0.16807549px;stroke-linecap:butt;stroke-linejoin:miter;stroke-opacity:1;fill-opacity:0.39303482" /><path
     sodipodi:nodetypes="cssssssccccc"
     inkscape:connector-curvature="0"
     id="path923"
     d="m 29.930124,196.48585 c -0.84379,0.13587 -0.798621,0.13085 -1.637882,0.2214 -0.839263,0.0906 -1.676273,0.15845 -2.511051,0.20371 -0.834779,0.0453 -1.667328,0.0679 -2.497666,0.0678 -0.83034,-3e-5 -1.658469,-0.0227 -2.484413,-0.068 -0.825944,-0.0453 -1.649699,-0.11325 -2.471291,-0.20382 -0.821591,-0.0906 -1.641016,-0.20376 -2.458299,-0.33958 -0.817282,-0.13582 -1.63242,-0.29426 -2.445437,-0.47532 l -0.171975,1.18594 c 6.701213,2.09867 13.43588,2.14142 20.204804,0.0788 l -0.101899,-1.26476 c -0.84836,0.18118 -0.468329,0.1725 -1.312117,0.30837"
     style="fill:#a6d100;stroke:#000000;stroke-width:0.16807549px;stroke-linecap:butt;stroke-linejoin:miter;stroke-opacity:1" /><path
     sodipodi:nodetypes="ccccccsccccssccccccccccccccccccccccccc"
     inkscape:connector-curvature="0"
     id="path929"
     d="m 26.864878,190.22319 0.499989,-0.21269 -1.776938,-0.87747 0.642758,-1.87476 -1.347559,0.30135 0.55478,-0.82823 c 0.278204,-0.47104 0.404936,-0.85179 0.08108,-1.44112 -0.323853,-0.58932 -1.02327,-0.5671 -1.674517,-0.57743 l 0.02391,-0.99066 -0.921887,-0.0252 0.04283,1.01517 c -0.323251,0.0222 -0.71148,0.026 -1.046323,0.10135 -0.334844,0.0754 -0.616305,0.22232 -0.726019,0.5309 -0.219431,0.61715 -0.140032,1.08087 0.429051,1.77464 l 0.429053,0.49306 -1.344933,-0.36405 0.635535,1.87706 -1.779892,0.87123 1.776939,0.8778 -0.642758,1.87443 1.877062,-0.63554 0.871235,1.7799 0.877471,-1.77694 1.874765,0.64275 -0.635863,-1.87705 0.193466,-0.10123 m -3.579925,-5.37566 h 0.863684 v 1.64399 l -0.66869,0.0279 -0.585311,-0.86401 c -0.113173,-0.43151 0.05845,-0.67306 0.390317,-0.80788 z m 1.501847,9.9e-4 h 0.864012 c 0.33187,0.13482 0.503161,0.37637 0.389987,0.80788 l -0.584982,0.86401 -0.669017,-0.0279 z"
     style="opacity:1;fill:#ffffff;fill-opacity:1;fill-rule:nonzero;stroke:#000000;stroke-width:0.19564784;stroke-linecap:round;stroke-linejoin:round;stroke-miterlimit:4;stroke-dasharray:none;stroke-dashoffset:0;stroke-opacity:1" /><path
     sodipodi:nodetypes="ccsccccc"
     inkscape:connector-curvature="0"
     id="path953"
     d="m 20.66083,178.10302 1.320171,0.17734 c -3.538441,3.99925 -4.386587,6.18345 -5.285729,8.59162 -0.491511,1.31641 -1.726997,6.09823 -1.906247,9.20113 l -1.320171,-0.23645 c 0.593752,-4.89973 1.248055,-9.71042 2.719158,-13.31993 0.484903,-0.89382 0.95816,-1.87227 1.85218,-2.56153 0.774648,-0.81674 1.635961,-1.40299 2.620638,-1.85218 z"
     style="fill:#405162;stroke:none;stroke-width:0.16807549px;stroke-linecap:butt;stroke-linejoin:miter;stroke-opacity:1;fill-opacity:0.39215687" /><path
     sodipodi:nodetypes="cccc"
     inkscape:connector-curvature="0"
     id="path955"
     d="m 13.250494,197.15996 1.504749,0.45978 -3.901202,2.43825 z"
     style="fill:#405162;stroke:none;stroke-width:0.16807549px;stroke-linecap:butt;stroke-linejoin:miter;stroke-opacity:1" /><path
     sodipodi:nodetypes="ccccc"
     inkscape:connector-curvature="0"
     id="path957"
     d="m 13.501285,196.00353 -0.153261,1.07283 1.435084,0.34832 v -1.15643 z"
     style="fill:#89ab00;stroke:none;stroke-width:0.16807549px;stroke-linecap:butt;stroke-linejoin:miter;stroke-opacity:1" /><g
     id="g3007"
     transform="matrix(0.16807548,0,0,0.16807548,-1.8805948,172.44796)"><path
       style="fill:none;stroke:#000000;stroke-width:2;stroke-linecap:butt;stroke-linejoin:miter;stroke-miterlimit:4;stroke-dasharray:none;stroke-opacity:1"
       d="m 94.423567,113.26009 c -3.3642,20.71022 -4.388397,33.28153 -4.388397,33.28153 l -15.005862,17.81946 c 28.524442,6.48831 52.266662,9.93738 75.029312,25.79133 11.62932,-9.08302 21.85219,-14.50185 33.37634,-17.58416 m 14.42398,-3.81323 c 9.86622,-2.58492 13.90463,-2.66752 26.76005,-4.39394 l -14.37114,-17.35053 c 0,0 -6.25009,-73.92809 -19.39205,-93.786634 -13.14196,-19.858544 -39.85932,-27.667058 -39.85932,-27.667058 0,0 -27.38253,8.120281 -40.79718,28.135991 -6.70733,10.007856 -8.76409,22.609303 -12.459874,37.682572"
       id="path915"
       inkscape:connector-curvature="0"
       sodipodi:nodetypes="cccccccczcsc" /></g><path
     sodipodi:nodetypes="cccccc"
     inkscape:connector-curvature="0"
     id="path925"
     d="m 20.551314,177.94654 c 1.776976,0.42237 3.644258,0.4413 5.628876,-0.0279 -0.455935,-0.59978 -1.017483,-1.13355 -2.062064,-1.36543 l -0.777546,-1.58834 -0.838666,1.61621 c -1.017623,0.19941 -1.574891,0.80939 -1.9506,1.36542 z"
     style="fill:#a6d100;stroke:#000000;stroke-width:0.33615097;stroke-linecap:butt;stroke-linejoin:miter;stroke-miterlimit:4;stroke-dasharray:none;stroke-opacity:1" /><path
     sodipodi:nodetypes="cccccc"
     inkscape:connector-curvature="0"
     id="path951"
     d="m 23.320877,175.38386 0.334967,0.57142 -1.586175,2.07993 -1.252351,-0.17734 c 0.465941,-0.6394 0.858733,-0.94801 1.792967,-1.11912 z"
     style="fill:#89ab00;stroke:none;stroke-width:0.16807549px;stroke-linecap:butt;stroke-linejoin:miter;stroke-opacity:1" /></g></svg>