<?xml version="1.0" encoding="UTF-8" standalone="no"?>
<!-- Generator: Adobe Illustrator 24.3.0, SVG Export Plug-In . SVG Version: 6.00 Build 0)  -->

<svg
   xmlns:dc="http://purl.org/dc/elements/1.1/"
   xmlns:cc="http://creativecommons.org/ns#"
   xmlns:rdf="http://www.w3.org/1999/02/22-rdf-syntax-ns#"
   xmlns:svg="http://www.w3.org/2000/svg"
   xmlns="http://www.w3.org/2000/svg"
   xmlns:sodipodi="http://sodipodi.sourceforge.net/DTD/sodipodi-0.dtd"
   xmlns:inkscape="http://www.inkscape.org/namespaces/inkscape"
   version="1.1"
   id="Capa_1"
   x="0px"
   y="0px"
   viewBox="0 0 300 200"
   style="enable-background:new 0 0 300 200;"
   xml:space="preserve"
   sodipodi:docname="xacml.svg"
   inkscape:version="0.92.5 (2060ec1f9f, 2020-04-08)"><metadata
   id="metadata1104"><rdf:RDF><cc:Work
       rdf:about=""><dc:format>image/svg+xml</dc:format><dc:type
         rdf:resource="http://purl.org/dc/dcmitype/StillImage" /><dc:title /></cc:Work></rdf:RDF></metadata><defs
   id="defs1102" /><sodipodi:namedview
   pagecolor="#ffffff"
   bordercolor="#666666"
   borderopacity="1"
   objecttolerance="10"
   gridtolerance="10"
   guidetolerance="10"
   inkscape:pageopacity="0"
   inkscape:pageshadow="2"
   inkscape:window-width="1920"
   inkscape:window-height="1043"
   id="namedview1100"
   showgrid="false"
   inkscape:snap-global="false"
   showguides="true"
   inkscape:zoom="3.0158104"
   inkscape:cx="168.95399"
   inkscape:cy="95.957351"
   inkscape:window-x="0"
   inkscape:window-y="1080"
   inkscape:window-maximized="1"
   inkscape:current-layer="Capa_1"
   inkscape:guide-bbox="true"><sodipodi:guide
     position="-343.25909,264.47831"
     orientation="1,0"
     id="guide917"
     inkscape:locked="false" /><sodipodi:guide
     position="224.61899,271.98124"
     orientation="1,0"
     id="guide919"
     inkscape:locked="false" /><sodipodi:guide
     position="79.08322,60.514414"
     orientation="0,1"
     id="guide921"
     inkscape:locked="false" /></sodipodi:namedview>
<style
   type="text/css"
   id="style815">
	.st0{fill:#5F7993;}
	.st1{fill:#17B5C8;}
	.st2{fill:#11828F;}
	.st3{fill:#405162;}
	.st4{fill:#A6D100;}
	.st5{fill:#89AB00;}
	.st6{fill:#FFFFFF;}
	.st7{fill:none;stroke:#17B5C8;stroke-width:2;stroke-miterlimit:10;}
</style>

<rect
   style="opacity:1;fill:#ffffff;fill-opacity:1;fill-rule:nonzero;stroke:none;stroke-width:0.5669291;stroke-linecap:round;stroke-linejoin:round;stroke-miterlimit:4;stroke-dasharray:none;stroke-dashoffset:0;stroke-opacity:1"
   id="rect5692"
   width="187.90849"
   height="176.79738"
   x="30.138475"
   y="8.8218937"
   ry="20.3092" /><g
   transform="translate(13.471815,-13.400328)"
   id="g2696"><path
     inkscape:connector-curvature="0"
     id="path2694"
     d="M 186.9,200 H 34.8 C 24.2,200 15.5,191.4 15.5,180.9 V 40 c 0,-10.5 8.7,-19.1 19.3,-19.1 h 76 c 0.6,0 1,0.4 1,1 0,0.6 -0.4,1 -1,1 h -76 c -9.5,0 -17.3,7.7 -17.3,17.1 v 140.9 c 0,9.4 7.8,17.1 17.3,17.1 h 152.1 c 9.5,0 17.3,-7.7 17.3,-17.1 v -32.1 c 0,-0.5 0.4,-1 1,-1 0.6,0 1,0.4 1,1 v 32.1 c 0,10.5 -8.6,19.1 -19.3,19.1 z" /></g><g
   transform="matrix(0.89791127,0,0,0.89791127,-7.9417511,5.0573587)"
   id="g2962"><path
     style="fill:#5f7993;stroke:none;stroke-width:1px;stroke-linecap:butt;stroke-linejoin:miter;stroke-opacity:1"
     d="m 94.398919,113.32734 c -3.3642,20.71022 -4.388397,33.28153 -4.388397,33.28153 L 75.00466,164.42833 c 28.52444,6.48831 52.26666,9.93738 75.02931,25.79133 11.62932,-9.08302 23.8417,-14.66764 36.36061,-18.41312 12.51891,-3.74547 25.34434,-5.65179 38.19976,-7.37821 L 210.2232,147.0778 c 0,0 -6.25009,-73.928085 -19.39205,-93.786625 -13.14196,-19.858544 -39.85932,-27.667058 -39.85932,-27.667058 0,0 -27.38253,8.120281 -40.79718,28.135988 -6.70733,10.00786 -11.582566,31.89371 -14.946766,51.277585"
     id="path915-3"
     inkscape:connector-curvature="0"
     sodipodi:nodetypes="ccccscczcsc" /><path
     style="fill:#a6d100;stroke:#000000;stroke-width:1px;stroke-linecap:butt;stroke-linejoin:miter;stroke-opacity:1"
     d="m 189.26448,143.01845 c -5.0203,0.80834 -4.75156,0.77847 -9.74492,1.31723 -4.99337,0.53877 -9.97333,0.94276 -14.94002,1.21201 -4.96669,0.26926 -9.92011,0.40378 -14.86038,0.4036 -4.94028,-1.9e-4 -9.86741,-0.13507 -14.78153,-0.40462 -4.91413,-0.26955 -9.81523,-0.67377 -14.70346,-1.21263 -4.88823,-0.53885 -9.76357,-1.21234 -14.62616,-2.02043 -4.86259,-0.80808 -9.712425,-1.75077 -14.549637,-2.82802 l -1.023203,7.05603 c 39.87026,12.48643 79.93956,12.74082 120.21268,0.46893 l -0.60627,-7.52496 c -5.04749,1.07798 -2.78642,1.02636 -7.80671,1.8347"
     id="path923"
     inkscape:connector-curvature="0"
     sodipodi:nodetypes="cssssssccccc" /><path
     style="opacity:1;fill:#ffffff;fill-opacity:1;fill-rule:nonzero;stroke:#000000;stroke-width:1.16404748;stroke-linecap:round;stroke-linejoin:round;stroke-miterlimit:4;stroke-dasharray:none;stroke-dashoffset:0;stroke-opacity:1"
     d="m 171.02716,105.75741 2.97479,-1.26544 -10.57226,-5.220672 3.82422,-11.154297 -8.01758,1.792969 3.30078,-4.927735 c 1.65523,-2.802531 2.40925,-5.067899 0.48242,-8.574218 -1.92683,-3.506322 -6.08816,-3.374077 -9.96289,-3.435547 l 0.14224,-5.89415 -5.48496,-0.149719 0.25483,6.039963 c -1.92325,0.132135 -4.2331,0.154595 -6.22532,0.603006 -1.99222,0.448411 -3.66683,1.322773 -4.3196,3.158712 -1.30555,3.671877 -0.83315,6.430866 2.55273,10.558594 l 2.55274,2.933594 -8.00196,-2.166016 3.78125,11.167969 -10.58984,5.183567 10.57227,5.22262 -3.82422,11.15231 11.16797,-3.78125 5.18359,10.58985 5.2207,-10.57227 11.1543,3.82422 -3.7832,-11.16793 1.15107,-0.60227 M 143.26172,77.089657 h 5.13867 v 9.78125 l -3.97851,0.166016 -3.48243,-5.140625 c -0.67335,-2.567365 0.34774,-4.004528 2.32227,-4.806641 z m 8.93555,0.0059 h 5.14062 c 1.97453,0.802113 2.99366,2.239275 2.32031,4.80664 l -3.48047,5.140625 -3.98046,-0.166015 z"
     id="path929"
     inkscape:connector-curvature="0"
     sodipodi:nodetypes="ccccccsccccssccccccccccccccccccccccccc" /><path
     style="fill:#405162;stroke:none;stroke-width:1px;stroke-linecap:butt;stroke-linejoin:miter;stroke-opacity:1"
     d="m 134.11489,33.645955 7.85463,1.0551 c -21.05269,23.794377 -26.09891,36.789764 -31.44854,51.117634 -2.92435,7.832248 -10.27513,36.282681 -11.341614,54.744031 l -7.85463,-1.4068 c 3.532651,-29.15198 7.425563,-57.774167 16.178194,-79.249707 2.88503,-5.317939 5.70077,-11.139454 11.01993,-15.240328 4.60893,-4.859344 9.73349,-8.347398 15.59203,-11.01993 z"
     id="path953"
     inkscape:connector-curvature="0"
     sodipodi:nodetypes="ccsccccc" /><path
     style="fill:#405162;stroke:none;stroke-width:1px;stroke-linecap:butt;stroke-linejoin:miter;stroke-opacity:1"
     d="m 90.025553,147.02916 8.952817,2.73558 -23.211008,14.50689 z"
     id="path955"
     inkscape:connector-curvature="0"
     sodipodi:nodetypes="cccc" /><path
     style="fill:#89ab00;stroke:none;stroke-width:1px;stroke-linecap:butt;stroke-linejoin:miter;stroke-opacity:1"
     d="m 91.517689,140.14875 -0.911861,6.38304 8.538335,2.07241 v -6.88041 z"
     id="path957"
     inkscape:connector-curvature="0"
     sodipodi:nodetypes="ccccc" /><path
     style="fill:none;stroke:#000000;stroke-width:2;stroke-linecap:butt;stroke-linejoin:miter;stroke-miterlimit:4;stroke-dasharray:none;stroke-opacity:1"
     d="m 94.423567,113.26009 c -3.3642,20.71022 -4.388397,33.28153 -4.388397,33.28153 l -15.005862,17.81946 c 28.524442,6.48831 52.266662,9.93738 75.029312,25.79133 11.62932,-9.08302 21.85219,-14.50185 33.37634,-17.58416 m 14.42398,-3.81323 c 9.86622,-2.58492 13.90463,-2.66752 26.76005,-4.39394 l -14.37114,-17.35053 c 0,0 -6.25009,-73.92809 -19.39205,-93.786634 -13.14196,-19.858544 -39.85932,-27.667058 -39.85932,-27.667058 0,0 -27.38253,8.120281 -40.79718,28.135991 -6.70733,10.007856 -8.76409,22.609303 -12.459874,37.682572"
     id="path915"
     inkscape:connector-curvature="0"
     sodipodi:nodetypes="cccccccczcsc" /><path
     style="fill:#a6d100;stroke:#000000;stroke-width:2;stroke-linecap:butt;stroke-linejoin:miter;stroke-miterlimit:4;stroke-dasharray:none;stroke-opacity:1"
     d="m 133.4633,32.71495 c 10.57249,2.51296 21.68227,2.625611 33.49017,-0.165794 -2.71268,-3.5685 -6.05373,-6.744272 -12.26868,-8.123853 l -4.62617,-9.450196 -4.98982,9.615989 c -6.05456,1.18645 -9.37014,4.815626 -11.6055,8.123854 z"
     id="path925"
     inkscape:connector-curvature="0"
     sodipodi:nodetypes="cccccc" /><path
     style="fill:#89ab00;stroke:none;stroke-width:1px;stroke-linecap:butt;stroke-linejoin:miter;stroke-opacity:1"
     d="m 149.94139,17.467761 1.99296,3.399765 -9.43728,12.374973 -7.45112,-1.055099 c 2.77221,-3.804241 5.10921,-5.640408 10.66763,-6.658438 z"
     id="path951"
     inkscape:connector-curvature="0"
     sodipodi:nodetypes="cccccc" /></g><path
   style="fill:#ffffff;stroke:none;stroke-width:1px;stroke-linecap:butt;stroke-linejoin:miter;stroke-opacity:1"
   d="m 168.46425,131.53576 -4.80657,30.83235 32.00469,-4.80656 -9.61313,-3.517 -3.75147,-9.73037 -9.84759,-3.51699 z"
   id="path2143"
   inkscape:connector-curvature="0" /><g
   id="g2141"><path
     class="st0"
     d="m 293.87182,45.199672 -12.2,-12.1 c -4.2,-4.2 -11.1,-4.2 -15.3,0 l -4,4 27.5,27.2 4,-4 c 4.2,-4.2 4.2,-11 0,-15.1 z"
     id="path2682"
     inkscape:connector-curvature="0"
     style="fill:#5f7993" /><path
     class="st3"
     d="m 286.37182,47.599672 c -9.5,0 -18,-4.2 -23.7,-10.8 l -0.3,0.3 27.5,27.2 4,-4 c 3.8,-3.8 4.2,-9.7 1,-13.9 -2.7,0.7 -5.6,1.2 -8.5,1.2 z"
     id="path2684"
     inkscape:connector-curvature="0"
     style="fill:#405162" /><polygon
     class="st4"
     points="168.8,157.6 172.4,167.6 182.2,170.9 271.1,82.8 257.7,69.5 "
     id="polygon2686"
     style="fill:#a6d100"
     transform="translate(13.471815,-13.400328)" /><polygon
     class="st1"
     points="159,154.3 168.8,157.6 257.7,69.5 243.6,55.6 154.7,143.7 "
     id="polygon2688"
     style="fill:#17b5c8"
     transform="translate(13.471815,-13.400328)" /><g
     id="g2700"
     transform="translate(13.471815,-13.400328)"><path
       d="m 162.9,175 c -0.3,0 -0.5,-0.1 -0.7,-0.3 l -10.6,-10.5 c -0.4,-0.4 -0.4,-1 0,-1.4 0.4,-0.4 1,-0.4 1.4,0 l 10.6,10.5 c 0.4,0.4 0.4,1 0,1.4 -0.2,0.2 -0.4,0.3 -0.7,0.3 z"
       id="path2698"
       inkscape:connector-curvature="0" /></g><g
     id="g2704"
     transform="translate(13.471815,-13.400328)"><path
       d="m 276.3,78.7 c -0.3,0 -0.5,-0.1 -0.7,-0.3 L 248.1,51.2 c -0.2,-0.2 -0.3,-0.4 -0.3,-0.7 0,-0.3 0.1,-0.5 0.3,-0.7 l 4,-4 c 4.6,-4.6 12.1,-4.6 16.7,0 l 7.2,7.1 c 0.4,0.4 0.4,1 0,1.4 -0.4,0.4 -1,0.4 -1.4,0 l -7.2,-7.1 c -3.8,-3.8 -10,-3.8 -13.9,0 l -3.3,3.3 26.1,25.8 3.3,-3.3 c 1.9,-1.8 2.9,-4.3 2.9,-6.9 0,-2.6 -1,-5 -2.9,-6.9 -0.4,-0.4 -0.4,-1 0,-1.4 0.4,-0.4 1,-0.4 1.4,0 2.2,2.2 3.5,5.1 3.5,8.3 0,3.1 -1.2,6.1 -3.5,8.3 l -4,4 c -0.1,0.2 -0.4,0.3 -0.7,0.3 z"
       id="path2702"
       inkscape:connector-curvature="0" /></g><g
     id="g2708"
     transform="translate(13.471815,-13.400328)"><path
       d="m 271.1,83.8 c -0.3,0 -0.5,-0.1 -0.7,-0.3 L 242.9,56.3 c -0.4,-0.4 -0.4,-1 0,-1.4 l 5.2,-5.2 c 0.4,-0.4 1,-0.4 1.4,0 L 277.1,77 c 0.4,0.4 0.4,1 0,1.4 l -5.2,5.2 c -0.3,0.1 -0.5,0.2 -0.8,0.2 z m -26,-28.2 26.1,25.8 3.8,-3.8 -26.1,-25.8 z"
       id="path2706"
       inkscape:connector-curvature="0" /></g><path
     class="st2"
     d="m 257.57182,69.599672 13.5,-13.4 -14,-13.9 -4.4,4.3 c 2.6,7.3 4.2,15 4.9,23 z"
     id="path2710"
     inkscape:connector-curvature="0"
     style="fill:#11828f" /><path
     class="st5"
     d="m 258.07182,78.699672 c 0,6.4 -0.6,12.699998 -1.8,18.799998 l 28.3,-28.099998 -13.4,-13.3 -13.6,13.5 c 0.3,3 0.5,6 0.5,9.1 z"
     id="path2712"
     inkscape:connector-curvature="0"
     style="fill:#89ab00" /><g
     id="g2716"
     transform="translate(13.471815,-13.400328)"><path
       d="m 168.8,158.6 c -0.1,0 -0.2,0 -0.3,-0.1 l -9.8,-3.3 c -0.3,-0.1 -0.5,-0.3 -0.6,-0.6 L 153.8,144 c -0.1,-0.4 -0.1,-0.8 0.2,-1.1 l 12.3,-12.2 c 0.4,-0.4 1,-0.4 1.4,0 0.4,0.4 0.4,1 0,1.4 l -11.9,11.7 3.9,9.6 8.7,2.9 87.8,-86.9 -12.6,-12.4 -65.5,64.9 c -0.4,0.4 -1,0.4 -1.4,0 -0.4,-0.4 -0.4,-1 0,-1.4 l 66.2,-65.6 c 0.4,-0.4 1,-0.4 1.4,0 l 14,13.9 c 0.4,0.4 0.4,1 0,1.4 l -88.9,88 c -0.1,0.3 -0.4,0.4 -0.6,0.4 z"
       id="path2714"
       inkscape:connector-curvature="0" /></g><g
     id="g2720"
     transform="translate(13.471815,-13.400328)"><path
       d="m 182.2,171.9 c -0.1,0 -0.2,0 -0.3,-0.1 l -9.8,-3.3 c -0.3,-0.1 -0.5,-0.3 -0.6,-0.6 l -3.6,-10 c -0.1,-0.4 0,-0.8 0.2,-1 l 88.9,-88 c 0.4,-0.4 1,-0.4 1.4,0 l 13.4,13.3 c 0.4,0.4 0.4,1 0,1.4 l -88.9,88 c -0.2,0.2 -0.4,0.3 -0.7,0.3 z m -9,-5.1 8.8,2.9 87.8,-86.9 -12,-11.9 -87.8,86.9 z"
       id="path2718"
       inkscape:connector-curvature="0" /></g><g
     id="g2730"
     transform="translate(13.471815,-13.400328)"><g
       id="g2724"><path
         d="m 168.8,158.6 c -0.3,0 -0.5,-0.1 -0.7,-0.3 -0.2,-0.2 -0.3,-0.5 -0.3,-0.7 0,-0.2 0.1,-0.5 0.3,-0.7 0.4,-0.4 1,-0.4 1.4,0 0.2,0.2 0.3,0.5 0.3,0.7 0,0.2 -0.1,0.5 -0.3,0.7 v 0 c -0.2,0.2 -0.5,0.3 -0.7,0.3 z"
         id="path2722"
         inkscape:connector-curvature="0" /></g><g
       id="g2728"><path
         d="m 150.1,177 c -0.3,0 -0.5,-0.1 -0.7,-0.3 -0.2,-0.2 -0.3,-0.5 -0.3,-0.9 L 154,144 c 0.1,-0.4 0.4,-0.8 0.9,-0.8 0.4,-0.1 0.9,0.2 1,0.6 l 3.9,9.7 9.3,3.1 c 0.3,0.1 0.5,0.3 0.6,0.6 l 3.5,9.6 9.1,3 c 0.2,0 0.5,0.1 0.7,0.3 l 0.1,0.1 c 0.3,0.3 0.4,0.7 0.2,1 -0.2,0.3 -0.4,0.6 -0.8,0.7 l -32.3,5 c 0,0.1 -0.1,0.1 -0.1,0.1 z m 5.3,-29.1 -4.1,26.8 27,-4.2 -6.1,-2.1 c -0.3,-0.1 -0.5,-0.3 -0.6,-0.6 l -3.5,-9.6 -9.3,-3.1 c -0.3,-0.1 -0.5,-0.3 -0.6,-0.6 z"
         id="path2726"
         inkscape:connector-curvature="0" /></g></g></g></svg>